<svg version="1.1" id="Camada_1" xmlns="http://www.w3.org/2000/svg" x="0" y="0" viewBox="0 0 513 90.7" style="enable-background:new 0 0 513 90.7" xml:space="preserve"><style>.st0{fill:#fff}</style><path class="st0" d="M275.7 0h236.4v90.7H275.7z"/><linearGradient id="SVGID_1_" gradientUnits="userSpaceOnUse" x1="278.938" y1="960.96" x2="494.587" y2="1041.177" gradientTransform="translate(0 -926.803)"><stop offset="0" style="stop-color:#fbf300"/><stop offset="1" style="stop-color:#0c182f"/></linearGradient><path d="M324.4 28.8v35.9c0 2.4-.2 4.3-1.1 6.1-.8 1.8-1.6 2.9-2.9 4.3-1.3 1.1-2.9 1.9-4.8 2.4s-4 .8-6.3.8h-3.2c-.5 0-.8 0-1.3-.2-.5 0-.8-.2-1.1-.2l.5-7.4c.2 0 .5 0 1.1.2h3.7c.8 0 1.6 0 2.4-.2s1.3-.5 2.2-1.1c.5-.5 1.1-1.1 1.3-1.9.2-.8.5-1.6.5-2.9V35.9h-9.1v-7.4h18.1v.3zm-8.5-12.3c.8-.8 2.2-1.3 3.7-1.3 1.6 0 2.9.5 3.7 1.3 1.1.8 1.3 2.2 1.3 3.5s-.5 2.6-1.3 3.5c-.8.8-2.2 1.3-3.7 1.3-1.6 0-2.9-.5-3.7-1.3-.8-.8-1.3-2.2-1.3-3.5 0-1.7.4-2.7 1.3-3.5z" style="fill:url(#SVGID_1_)"/><linearGradient id="SVGID_00000039114385994691038840000017991998924235530638_" gradientUnits="userSpaceOnUse" x1="284.246" y1="946.69" x2="499.896" y2="1026.907" gradientTransform="translate(0 -926.803)"><stop offset="0" style="stop-color:#fbf300"/><stop offset="1" style="stop-color:#0c182f"/></linearGradient><path style="fill:url(#SVGID_00000039114385994691038840000017991998924235530638_)" d="M362.2 62.5c-.2-.5-.2-1.1-.2-1.9l-1.6 1.6c-.5.5-1.3.8-2.2 1.3-.8.2-1.6.5-2.6.8-1.1.4-1.9.2-3.2.2-1.9 0-3.5-.2-5-.8-1.6-.5-2.9-1.3-4-2.2-1.1-.8-1.9-2.2-2.6-3.5-.5-1.3-.8-2.6-.8-4.3 0-1.9.2-3.7 1.1-5 .8-1.3 1.9-2.6 3.5-3.7 1.3-.8 2.9-1.6 5-2.2 2.2-.5 4.3-.8 6.9-.8h5v-2.2c0-.8 0-1.6-.2-2.2-.2-.5-.5-1.3-1.1-1.6-.5-.5-1.3-.8-2.2-1.1-.8-.2-1.9-.5-2.9-.5s-1.9 0-2.4.2c-.8.2-1.3.5-1.6 1.1-.2.2-.8.8-.8 1.3-.2.5-.2 1.1-.2 1.6h-9.2c0-1.6.2-2.9 1.1-4.3.5-1.3 1.6-2.4 2.9-3.5s2.9-1.9 4.5-2.4c1.9-.5 4-.8 6.3-.8 2.2 0 4 .2 5.9.8 1.9.5 3.5 1.3 4.8 2.4s2.4 2.4 3.2 3.7c.8 1.6 1.1 3.5 1.1 5.3V55c0 1.9 0 3.5.2 4.8s.5 2.4 1.1 3.2v.5h-9.1c-.5.1-.5-.4-.7-1zm-5.6-5.2c.8-.2 1.6-.5 2.2-.8.5-.2 1.1-.8 1.6-1.1.5-.5.8-.8 1.1-1.3V48H357c-1.3 0-2.6.2-3.7.5-1.1.2-1.9.5-2.4 1.1-.5.5-1.1 1.1-1.3 1.9-.2.8-.5 1.3-.5 2.2 0 .5 0 1.3.2 1.9.2.5.5 1.1 1.1 1.3.5.2 1.1.5 1.6.8.5.2 1.3.2 2.2.2.8-.2 1.9-.4 2.4-.6z"/><linearGradient id="SVGID_00000043437395437622923500000006769901764388017545_" gradientUnits="userSpaceOnUse" x1="289.969" y1="931.306" x2="505.618" y2="1011.524" gradientTransform="translate(0 -926.803)"><stop offset="0" style="stop-color:#fbf300"/><stop offset="1" style="stop-color:#0c182f"/></linearGradient><path style="fill:url(#SVGID_00000043437395437622923500000006769901764388017545_)" d="M378.5 28.8h9.3l7.7 24.8.5 2.4.5-2.4 7.7-24.8h9.3L400.2 64h-8.5l-13.2-35.2z"/><linearGradient id="SVGID_00000138572730057592710970000018400321142987525558_" gradientUnits="userSpaceOnUse" x1="293.964" y1="920.565" x2="509.614" y2="1000.782" gradientTransform="translate(0 -926.803)"><stop offset="0" style="stop-color:#fbf300"/><stop offset="1" style="stop-color:#0c182f"/></linearGradient><path style="fill:url(#SVGID_00000138572730057592710970000018400321142987525558_)" d="M442.1 62.5c-.2-.5-.2-1.1-.2-1.9l-1.6 1.6c-.5.5-1.3.8-2.2 1.3-.8.2-1.6.5-2.6.8-1.1.2-1.9.2-3.2.2-1.9 0-3.5-.2-5-.8-1.6-.5-2.9-1.3-4-2.2-1.1-.8-1.9-2.2-2.6-3.5-.5-1.3-.8-2.6-.8-4.3 0-1.9.2-3.7 1.1-5 .8-1.3 1.9-2.6 3.5-3.7 1.3-.8 2.9-1.6 5-2.2 2.2-.5 4.3-.8 6.9-.8h5v-2.2c0-.8 0-1.6-.2-2.2-.2-.5-.5-1.3-1.1-1.6-.5-.5-1.3-.8-2.2-1.1-.8-.2-1.9-.5-2.9-.5-1.1 0-1.9 0-2.4.2-.8.2-1.3.5-1.6 1.1-.2.2-.8.8-.8 1.3-.2.5-.2 1.1-.2 1.6h-9.1c0-1.6.2-2.9 1.1-4.3.5-1.3 1.6-2.4 2.9-3.5s2.9-1.9 4.5-2.4c1.9-.5 4-.8 6.3-.8 2.2 0 4 .2 5.9.8 1.9.5 3.5 1.3 4.8 2.4 1.3 1.1 2.4 2.4 3.2 3.7.8 1.6 1.1 3.5 1.1 5.3V55c0 1.9 0 3.5.2 4.8s.5 2.4 1.1 3.2v.5h-9.1c-.6.1-.6-.4-.8-1zm-5.7-5.2c.8-.2 1.6-.5 2.2-.8.5-.2 1.1-.8 1.6-1.1.5-.5.8-.8 1.1-1.3V48h-4.5c-1.3 0-2.6.2-3.7.5-1.1.2-1.9.5-2.4 1.1-.5.5-1.1 1.1-1.3 1.9-.2.8-.5 1.3-.5 2.2 0 .5 0 1.3.2 1.9.2.5.5 1.1 1.1 1.3.5.2 1.1.5 1.6.8.5.2 1.3.2 2.2.2.9-.2 1.9-.4 2.4-.6z"/><linearGradient id="SVGID_00000029760136028545397190000007229514904625881754_" gradientUnits="userSpaceOnUse" x1="291.971" y1="925.922" x2="507.621" y2="1006.14" gradientTransform="translate(0 -926.803)"><stop offset="0" style="stop-color:#fbf300"/><stop offset="1" style="stop-color:#0c182f"/></linearGradient><path style="fill:url(#SVGID_00000029760136028545397190000007229514904625881754_)" d="M461 71.1v-7.2h29.6v6.9H461v.3z"/><path class="st0" d="M16.6 34v30.4h11.5v3.5H.9v-3.5h12V37.3H.9v-3.5l15.7.2c0-.2 0 0 0 0zm-4.8-10.3c0-.2.2-.5.5-1.1.2-.2.5-.5.8-.5s.8-.2 1.3-.2.8 0 1.3.2.5.2.8.5c.4.2.5.5.5.8 0 .2.2.8.2 1.1 0 .8-.2 1.3-.8 1.9-.5.5-1.1.8-2.2.8s-1.6-.2-2.2-.8c-.6-.6-.5-1.1-.5-1.9.3 0 .3-.3.3-.8zM38.7 37.9c.5-1.3 1.6-2.4 2.6-3.2 1.1-.8 2.6-1.3 4.5-1.3 1.1 0 1.9 0 2.6.2.8.2 1.3.5 2.2 1.1.5.2.8.8 1.3 1.3s.5 1.1.8 1.6c.2-.5.8-1.1 1.1-1.6.2-.5 1.1-1.1 1.6-1.3.5-.5 1.3-.8 2.2-1.1.8-.2 1.6-.2 2.6-.2 1.3 0 2.6.2 3.7.8 1.1.5 1.9 1.1 2.4 1.9s1.1 1.9 1.3 2.9c.2 1 .5 2.4.5 3.7v25h-3.5v-25c0-.8 0-1.3-.2-2.2-.2-.8-.2-1.3-.8-1.9-.2-.5-.8-1.1-1.6-1.3-.8-.2-1.6-.5-2.4-.5-1.1 0-1.9.2-2.6.5-.8.2-1.3.8-1.9 1.1-.5.5-.8 1.1-1.1 1.6-.2.5-.8 1.3-.8 1.9v26h-3.5V42.3c0-.8 0-1.3-.2-2.2-.2-.8-.5-1.3-.8-1.9-.2-.5-.8-1.1-1.6-1.3-.8-.2-1.3-.5-2.4-.5s-1.9.2-2.6.5c-.8.2-1.3.8-1.9 1.3-.5.5-.8 1.1-1.1 1.6-.2.5-.5 1.3-.5 1.9v25.9h-3.5V33.8h3.5l.1 4.1zM84.8 67.1c-1.9-.8-3.5-2.2-5-3.5-1.3-1.6-2.4-3.2-3.2-5.3-.8-2.2-1.1-4.3-1.1-6.3v-1.3c0-2.4.2-4.5 1.1-6.7.8-2.2 1.9-4 3.2-5.3 1.3-1.6 2.9-2.6 4.8-3.7s3.7-1.3 5.9-1.3 4.3.5 5.9 1.3 3.2 1.9 4.3 3.2 2.2 3.2 2.6 5c.5 1.9.8 4 1.1 6.1v2.4H79.1v1.1c0 1.9.5 3.5 1.1 5 .5 1.6 1.3 2.9 2.4 4 1.1 1.3 2.4 2.2 3.7 2.9s3.2 1.1 5 1.1c2.2 0 4-.2 5.6-1.1 1.6-.8 3.2-1.9 4.3-3.5l2.4 1.9c-1.3 1.9-2.9 3.2-5 4.3-2.2 1.1-4.5 1.6-7.4 1.6-2.4-.6-4.6-.9-6.4-1.9zm1.6-29.6c-1.3.5-2.4 1.3-3.5 2.4s-1.9 2.2-2.4 3.7-1.1 2.9-1.3 4.5h21.3v-.2c0-1.3-.2-2.6-.8-4-.5-1.3-1.1-2.6-2.2-3.5-.8-1.1-1.9-1.9-3.2-2.4-1.3-.5-2.6-.8-4.3-.8-1-.4-2.5-.2-3.6.3zM140.1 33.5c1.1 0 1.9.2 2.4.5l-.5 3.7c-.8-.2-1.6-.2-2.6-.5-1.1-.2-1.9-.2-2.6-.2-1.6 0-3.2.2-4.5.5-1.3.2-2.6.8-3.7 1.6s-1.9 1.6-2.6 2.9-1.3 2.4-1.9 4v21.4h-3.7V33.8h3.5l.2 5.3v1.6c1.3-2.4 3.2-4 5.3-5.3 2.2-1.3 5-1.9 8-1.9h2.7zM176.4 56.8c-.5-.8-1.1-1.3-1.9-1.9-.8-.5-1.9-1.1-3.2-1.6s-2.6-.8-4-1.1c-1.6-.2-3.2-.8-4.8-1.3s-2.6-1.1-4-1.9c-1.1-.8-2.2-1.6-2.9-2.6-.8-1.1-1.1-2.2-1.1-3.7 0-1.3.2-2.6 1.1-4 .8-1.3 1.6-2.2 2.9-2.9 1.1-.8 2.4-1.3 4-1.9 1.6-.5 3.2-.5 4.8-.5 1.9 0 3.5.2 5 .8 1.6.5 2.9 1.1 4.3 1.9 1.1.8 2.2 1.9 2.9 3.2.8 1.3 1.1 2.6 1.1 4.3h-3.7c0-1.1-.2-2.2-.8-2.9s-1.3-1.6-2.2-2.2c-.8-.5-1.9-1.1-2.9-1.3-1.1-.2-2.4-.5-3.5-.5s-2.2 0-3.2.2c-1.1.2-2.2.5-2.9 1.1-.8.5-1.6 1.1-2.2 1.9-.6.8-.8 1.6-.8 2.6 0 1.1.2 1.9.8 2.6.5.8 1.1 1.3 1.9 1.9.8.5 1.9 1.1 3.2 1.3 1.3.2 2.4.5 3.7.8 1.6.2 3.5.8 4.8 1.3s2.9 1.1 4 1.9 2.2 1.6 2.9 2.6c.8 1.1 1.1 2.4 1.1 4 0 1.3-.2 2.6-1.1 4-.8 1.3-1.6 2.2-2.6 2.9-1.3.8-2.6 1.6-4.5 2.2-1.9.5-3.5.5-5 .5-1.9 0-3.7-.2-5.3-.8-1.6-.5-3.2-1.1-4.5-2.2-1.3-.8-2.4-1.9-2.9-3.2s-1.1-2.6-1.3-4.3h3.7c0 1.3.5 2.4 1.3 3.5s1.6 1.6 2.4 2.2c1.1.5 2.2.8 3.2 1.1 1.1.2 2.4.2 3.5.2 1.6 0 2.9-.2 4.3-.5 1.3-.2 2.4-.8 3.5-1.6.5-.5 1.1-1.1 1.3-1.6s.5-1.3.5-2.2c-.4-.8-.6-1.6-.9-2.3zM214.5 65.5c0-.8-.2-1.6-.2-2.6-.5.8-1.3 1.6-2.2 2.4-.8.8-1.9 1.3-2.9 1.9-1.1.5-2.2.8-3.2 1.1-1.1.2-2.4.2-3.7.2-1.6 0-2.9-.2-4.5-.8s-2.6-1.1-3.5-1.9c-.8-.8-1.9-1.9-2.4-2.9s-.8-2.4-.8-4c0-1.9.5-3.5 1.3-5 .8-1.6 2.2-2.4 3.5-3.5 1.3-.8 3.2-1.3 5-1.9s4-.5 6.1-.5h7.4v-3.8c0-1.3-.2-2.4-.8-3.5-.5-1.1-1.1-1.9-1.9-2.4-.8-.5-1.9-1.1-2.9-1.6s-2.4-.5-3.7-.5-2.4.2-3.5.5c-1.1.2-2.2.8-2.9 1.3-.8.5-1.6 1.3-2.2 2.2-.5.8-.8 1.9-.8 2.9H192c0-1.3.5-2.6 1.1-4 .5-1.3 1.6-2.2 2.9-3.2 1.1-.8 2.6-1.6 4.3-2.2 1.6-.5 3.2-.8 5-.8 1.9 0 3.5.2 5 .8 1.6.5 2.9 1.1 4 2.2s2.2 2.2 2.6 3.5c.5 1.3 1.1 2.9 1.1 4.8v16.3c0 1.1 0 2.4.2 3.5s.5 2.2.8 3.2v.2h-3.8c-.5-.3-.5-1.1-.7-1.9zm-8-.8c1.1-.2 2.4-.8 3.2-1.3s1.9-1.3 2.6-2.2c.8-.8 1.3-1.6 1.9-2.6v-7.4h-6.9c-1.9 0-3.7.2-5.3.5-1.6.2-3.2.8-4.3 1.6-1.1.5-1.6 1.3-2.2 2.2-.6.8-.8 1.9-.8 3.2 0 1.1.2 1.9.5 2.6.2.7 1.1 1.6 1.6 2.2.8.5 1.6 1.1 2.4 1.3.8.2 1.9.5 3.2.5 1.7 0 2.7-.4 4.1-.6zm8.7-41.2c-.2.8-.8 1.3-1.1 2.2-.5.5-1.1 1.1-1.9 1.3-.8.2-1.6.5-2.4.5s-1.6-.2-2.2-.5c-.5-.2-1.3-.5-1.9-1.1-.5-.2-1.1-.8-1.6-1.1-.5-.2-1.1-.5-1.6-.5s-1.1-.2-1.3 0-.8.2-1.3.2c-.5.2-1.1.5-1.6 1.1-.5.5-.5 1.3-.5 1.9l-2.4-.2c0-.8.2-1.6.5-2.4.2-.8.8-1.3 1.3-2.2.5-.5 1.1-1.1 1.9-1.3.8-.2 1.6-.5 2.4-.5s1.6.2 2.4.5 1.3.8 2.2 1.1c.5.5 1.3.8 1.9 1.1.5.2 1.3.5 2.2.5.5 0 1.1 0 1.3-.2s.8-.5 1.1-.8c.2-.2.5-.8.8-1.3.2-.5.2-1.1.2-1.3l2.4.5c-.2.8-.4 1.7-.8 2.5zM229.3 44c.8-2.2 1.6-3.7 2.9-5.3 1.3-1.6 2.9-2.9 4.8-3.7 1.9-.8 4-1.3 6.3-1.3 2.4 0 4.5.5 6.3 1.3s3.5 2.2 4.8 3.7 2.2 3.5 2.9 5.3c.8 1.9 1.1 4.3 1.1 6.3v1.1c0 2.4-.2 4.5-1.1 6.3-.8 1.9-1.6 3.7-2.9 5.3-1.3 1.6-2.9 2.6-4.8 3.7s-4 1.3-6.3 1.3-4.5-.5-6.3-1.3c-1.9-.8-3.5-2.2-4.8-3.7s-2.4-3.5-2.9-5.3c-.5-1.9-1.1-4.3-1.1-6.3v-.8c0-2.4.3-4.5 1.1-6.6zm3.5 12.8c.5 1.6 1.3 3.2 2.2 4.5 1.1 1.3 2.2 2.4 3.5 3.2 1.3.8 2.9 1.1 4.8 1.1s3.5-.2 4.8-1.1c1.3-.8 2.6-1.9 3.5-3.2 1.1-1.3 1.6-2.6 2.2-4.5.5-1.9.8-3.5.8-5v-1.1c0-1.9-.2-3.5-.8-5-.5-1.6-1.3-3.2-2.2-4.5-1.1-1.3-2.2-2.4-3.5-3.2-1.3-.8-2.9-1.1-4.8-1.1s-3.5.2-4.8 1.1-2.6 1.9-3.5 3.2c-1.1 1.3-1.6 2.6-2.2 4.5-.5 1.9-.8 3.5-.8 5v1.1c0 1.5.3 3.3.8 5z"/></svg>