<svg xmlns="http://www.w3.org/2000/svg" xmlns:xlink="http://www.w3.org/1999/xlink" width="247" height="44"><defs><linearGradient id="b" x1="1.395%" x2="110.527%" y1="44.82%" y2="56.529%"><stop offset="0%" stop-color="#39C1A8"/><stop offset="100%" stop-color="#0C182F"/></linearGradient><path id="a" d="M6.586 12.992c.481 0 .83-.133 1.045-.4.216-.266.323-.584.323-.953 0-.205-.027-.395-.082-.57a1.237 1.237 0 00-.263-.461 1.27 1.27 0 00-.421-.277 1.538 1.538 0 00-.602-.108c-.23 0-.431.036-.601.108a1.27 1.27 0 00-.421.277c-.12.133-.206.29-.256.47-.05.179-.075.366-.075.56 0 .37.105.688.316.954.21.267.556.4 1.037.4zm6.511 19.844V31.19H7.548V16.192H0v1.646h5.76V31.19H0v1.646h13.097zm5.097 0l.015-12.69c.08-.308.18-.616.301-.924.12-.307.286-.584.496-.83.221-.267.504-.48.85-.639.346-.159.78-.243 1.3-.253.472-.01.86.061 1.166.215.306.154.549.359.73.615.18.267.305.572.375.916.07.343.105.69.105 1.038l.016 12.552h1.699l.015-12.537-.002-.073-.006-.065a1.161 1.161 0 01-.007-.139c.07-.307.17-.61.3-.907a2.8 2.8 0 01.527-.8c.23-.236.516-.428.857-.577.34-.149.762-.228 1.263-.238.491-.01.892.069 1.203.238.31.17.556.392.737.67.18.286.303.61.368.968.065.36.098.718.098 1.077l.015 12.383h1.699l.015-12.368c0-.635-.065-1.233-.196-1.792a4.084 4.084 0 00-.646-1.469c-.27-.4-.647-.72-1.128-.961-.481-.241-1.062-.362-1.744-.362-.471 0-.9.062-1.286.185s-.734.287-1.045.492c-.29.195-.546.42-.767.677-.22.256-.406.528-.556.815-.1-.297-.23-.574-.391-.83a2.704 2.704 0 00-.601-.677 3.178 3.178 0 00-.963-.485 4.212 4.212 0 00-1.278-.177c-.892.01-1.626.213-2.203.608a4.004 4.004 0 00-1.346 1.577l-.06-1.877H16.51v16.644h1.684zm25.292.308c1.354 0 2.541-.272 3.564-.815 1.022-.544 1.844-1.257 2.466-2.139l-1.143-.892a5.852 5.852 0 01-2.09 1.692c-.812.39-1.72.585-2.722.585-.872-.01-1.664-.19-2.375-.539a5.59 5.59 0 01-1.835-1.43 6.47 6.47 0 01-1.18-2 7.963 7.963 0 01-.489-2.461v-.508h12.18v-1.123a9.738 9.738 0 00-.444-2.976 7.475 7.475 0 00-1.285-2.439 6.08 6.08 0 00-2.113-1.622c-.837-.395-1.792-.593-2.865-.593a6.385 6.385 0 00-2.849.646 7.153 7.153 0 00-2.293 1.785c-.662.759-1.18 1.65-1.556 2.676-.376 1.026-.564 2.134-.564 3.323v.662c0 1.117.185 2.171.556 3.16.37.99.892 1.86 1.564 2.608a7.245 7.245 0 002.39 1.754c.933.43 1.96.646 3.083.646zm4.586-10.091h-10.3c.1-.8.301-1.541.602-2.223.3-.682.686-1.274 1.158-1.777.46-.492.997-.88 1.608-1.161a4.758 4.758 0 012.015-.423c.772 0 1.459.151 2.06.454a4.77 4.77 0 011.534 1.207 5.8 5.8 0 01.97 1.754c.236.666.353 1.333.353 2v.169zm11.323 9.783l-.03-10.66c.2-.759.489-1.418.865-1.977a5.457 5.457 0 011.33-1.392 5.522 5.522 0 011.797-.838 8.196 8.196 0 012.143-.27c.441 0 .872.026 1.293.077.421.052.837.124 1.248.216l.24-1.785a6.112 6.112 0 00-1.15-.238 11.028 11.028 0 00-1.345-.085c-1.474-.01-2.755.303-3.842.939-1.088.636-1.947 1.523-2.579 2.66l-.015-.737-.105-2.554H57.53v16.644h1.864zm20.856.308c.852 0 1.69-.108 2.511-.323a6.402 6.402 0 002.165-1c.512-.38.928-.849 1.249-1.408.32-.558.48-1.197.48-1.915 0-.759-.167-1.407-.503-1.946a4.578 4.578 0 00-1.346-1.376c-.571-.38-1.233-.693-1.985-.939s-1.538-.461-2.36-.646a24.323 24.323 0 01-1.842-.454 6.23 6.23 0 01-1.512-.638c-.42-.236-.741-.53-.962-.885-.22-.353-.33-.771-.33-1.253 0-.482.125-.905.375-1.27.25-.363.577-.663.978-.9.4-.245.86-.427 1.375-.545a7.17 7.17 0 011.602-.177 6.24 6.24 0 011.691.23 5.134 5.134 0 011.466.662c.422.287.765.641 1.03 1.061.266.42.404.898.414 1.431h1.82c-.03-.79-.219-1.492-.564-2.107a5.044 5.044 0 00-1.376-1.57 6.275 6.275 0 00-2.008-.96 8.894 8.894 0 00-2.473-.332 8.46 8.46 0 00-2.278.308 6.665 6.665 0 00-1.933.861 4.79 4.79 0 00-1.39 1.446c-.346.564-.52 1.205-.52 1.923 0 .76.174 1.403.52 1.93a4.16 4.16 0 001.36 1.3c.602.36 1.248.652 1.94.878.692.225 1.454.425 2.286.6.661.143 1.298.317 1.91.522.61.206 1.132.452 1.563.739.391.256.697.566.917.93.221.365.331.788.331 1.27 0 .39-.082.743-.248 1.061a2.69 2.69 0 01-.699.846 4.762 4.762 0 01-1.639.808 7.32 7.32 0 01-2.015.269 8.872 8.872 0 01-1.662-.162 5.024 5.024 0 01-1.556-.561 3.832 3.832 0 01-1.195-1.054c-.326-.436-.519-.982-.58-1.638h-1.804c.03.759.223 1.446.58 2.061a4.852 4.852 0 001.465 1.57c.602.42 1.314.75 2.136.991a9.254 9.254 0 002.616.362zm14.6-20.167c.02-.37.123-.695.309-.977.185-.282.423-.464.714-.546.2-.092.409-.146.624-.161a2.567 2.567 0 011.489.369c.235.148.509.315.82.5.27.184.553.346.849.484.296.139.639.208 1.03.208.421 0 .804-.085 1.15-.254.346-.17.64-.402.88-.7.25-.277.443-.607.579-.992.135-.385.208-.787.218-1.208l-1.173-.23c-.02.256-.07.497-.15.723-.08.225-.186.42-.316.584a1.47 1.47 0 01-1.188.569c-.401 0-.764-.087-1.09-.261a9.777 9.777 0 01-.955-.585 13.87 13.87 0 00-.992-.577 2.422 2.422 0 00-1.143-.269c-.431 0-.817.085-1.158.254a2.68 2.68 0 00-.872.685c-.25.287-.446.62-.587 1-.14.379-.215.779-.225 1.2l1.188.184zm2.181 20.167c.601 0 1.18-.064 1.737-.192a7.36 7.36 0 001.586-.562 6.64 6.64 0 002.451-2.015c.02.43.058.856.113 1.277.055.42.138.815.248 1.184h1.925v-.2a15.73 15.73 0 01-.354-1.607c-.095-.57-.148-1.13-.158-1.685V21.3c-.01-.902-.175-1.692-.496-2.369a4.877 4.877 0 00-1.323-1.707 5.879 5.879 0 00-1.97-1 8.37 8.37 0 00-2.42-.339c-.863 0-1.672.123-2.43.37a6.75 6.75 0 00-1.992 1.015c-.57.44-1.027.959-1.368 1.553a4.242 4.242 0 00-.556 1.954l1.804.015c.02-.523.156-.992.406-1.407.25-.415.582-.767.993-1.054.4-.287.867-.507 1.398-.661a5.968 5.968 0 011.67-.231c.63 0 1.22.085 1.766.254.546.17 1.02.413 1.42.73.402.318.718.716.948 1.193.23.477.351 1.028.361 1.653v1.877h-3.534c-1.012 0-1.98.095-2.902.285-.922.19-1.729.494-2.42.915a4.89 4.89 0 00-1.677 1.638c-.416.672-.624 1.485-.624 2.438a4.343 4.343 0 001.564 3.415c.48.41 1.052.731 1.714.962.661.23 1.368.346 2.12.346zm.21-1.646a4.7 4.7 0 01-1.488-.23 3.814 3.814 0 01-1.203-.647 2.9 2.9 0 01-.82-1.023 3.063 3.063 0 01-.293-1.346c-.01-.625.12-1.154.391-1.584.27-.431.637-.795 1.098-1.092.561-.37 1.243-.626 2.045-.77.802-.143 1.649-.22 2.541-.23h3.278v3.645c-.23.493-.531.941-.902 1.346a5.622 5.622 0 01-1.278 1.039 6.224 6.224 0 01-1.58.661 6.831 6.831 0 01-1.788.231zm19.578 1.646c1.133 0 2.148-.226 3.045-.677a6.926 6.926 0 002.278-1.815 8.496 8.496 0 001.414-2.669c.33-1.01.496-2.084.496-3.223v-.492c0-1.138-.165-2.215-.496-3.23-.331-1.016-.807-1.903-1.429-2.662a6.75 6.75 0 00-2.278-1.822c-.897-.447-1.917-.67-3.06-.67s-2.16.226-3.052.677a6.937 6.937 0 00-2.27 1.815 8.337 8.337 0 00-1.43 2.677 10.335 10.335 0 00-.495 3.215v.492c0 1.139.165 2.215.496 3.23a7.964 7.964 0 001.443 2.662 6.598 6.598 0 002.27 1.823c.903.446 1.926.669 3.068.669zm0-1.57c-.892 0-1.679-.189-2.36-.568a5.176 5.176 0 01-1.7-1.508 6.806 6.806 0 01-1.06-2.184 9.628 9.628 0 01-.368-2.554v-.492c.01-.872.133-1.718.368-2.538.236-.82.59-1.544 1.06-2.17a5.13 5.13 0 011.692-1.522c.677-.38 1.456-.57 2.338-.57.882 0 1.662.19 2.339.57.676.38 1.25.887 1.721 1.523a7.08 7.08 0 011.038 2.169c.24.82.366 1.666.376 2.538v.492a9.594 9.594 0 01-.369 2.554 6.952 6.952 0 01-1.03 2.169 5.444 5.444 0 01-1.714 1.523c-.672.38-1.448.569-2.33.569z"/></defs><g fill="none" fill-rule="evenodd"><g fill-rule="nonzero"><use fill="#353535" xlink:href="#a"/><use fill="#FFF" xlink:href="#a"/></g><path fill="#FFF" style="mix-blend-mode:screen" d="M131.814 0h115v43.561h-115z"/><path d="M5.989 22.21c1.918 0 3.345-.743 4.282-2.229h.175l.797 1.959h3.161V.922h-4.133v4.836c0 .882.103 1.886.31 3.012h-.135c-1-1.477-2.449-2.215-4.349-2.215-1.81 0-3.23.691-4.262 2.073C.805 10.011.29 11.94.29 14.416c0 2.44.506 4.35 1.52 5.727 1.012 1.378 2.406 2.067 4.18 2.067zm1.445-3.282c-.954 0-1.688-.372-2.201-1.115-.514-.743-.77-1.857-.77-3.343s.254-2.618.763-3.397c.509-.779 1.222-1.168 2.14-1.168 1.126 0 1.939.35 2.439 1.053s.75 1.864.75 3.485v.446c-.046 1.468-.313 2.508-.804 3.12-.491.613-1.263.919-2.317.919zm14.953 3.282c1.18 0 2.136-.169 2.87-.507.734-.337 1.448-.943 2.141-1.816h.108l.797 2.053h2.877V11.877c0-1.801-.54-3.143-1.62-4.025-1.081-.883-2.634-1.324-4.66-1.324-2.117 0-4.044.455-5.782 1.364l1.364 2.783c1.63-.73 3.049-1.094 4.255-1.094 1.567 0 2.35.765 2.35 2.296v.662l-2.62.08c-2.26.082-3.95.503-5.072 1.264-1.121.76-1.682 1.942-1.682 3.545 0 1.531.417 2.71 1.25 3.54.833.828 1.974 1.242 3.424 1.242zm1.553-3.012c-1.332 0-1.999-.581-1.999-1.743 0-.81.293-1.413.878-1.81.586-.396 1.477-.612 2.675-.648l1.594-.054v1.243c0 .91-.286 1.639-.858 2.188-.572.55-1.335.824-2.29.824zm16.263 3.012c1.918 0 3.346-.743 4.282-2.229h.176l.797 1.959h3.16V.922h-4.133v4.836c0 .882.104 1.886.31 3.012h-.134c-1-1.477-2.45-2.215-4.35-2.215-1.81 0-3.23.691-4.261 2.073-1.031 1.383-1.547 3.312-1.547 5.788 0 2.44.507 4.35 1.52 5.727 1.013 1.378 2.406 2.067 4.18 2.067zm1.446-3.282c-.955 0-1.689-.372-2.202-1.115-.513-.743-.77-1.857-.77-3.343s.254-2.618.763-3.397c.509-.779 1.223-1.168 2.141-1.168 1.126 0 1.938.35 2.438 1.053.5.703.75 1.864.75 3.485v.446c-.045 1.468-.313 2.508-.804 3.12-.49.613-1.263.919-2.316.919zm17.64 3.282c2.315 0 4.12-.693 5.417-2.08 1.297-1.387 1.945-3.31 1.945-5.768 0-1.585-.297-2.967-.891-4.147-.595-1.18-1.446-2.084-2.553-2.715-1.108-.63-2.387-.945-3.837-.945-2.332 0-4.142.684-5.43 2.053-1.287 1.369-1.931 3.287-1.931 5.754 0 1.585.297 2.972.891 4.16.595 1.19 1.446 2.1 2.553 2.736 1.108.635 2.387.952 3.836.952zm.054-3.31c-1.107 0-1.906-.382-2.397-1.147-.49-.766-.736-1.896-.736-3.39 0-1.505.243-2.628.73-3.37.485-.744 1.278-1.115 2.376-1.115 1.108 0 1.905.373 2.391 1.12.487.748.73 1.87.73 3.364 0 1.504-.241 2.636-.723 3.397-.482.761-1.272 1.142-2.37 1.142zM75.12 6.556c1.82 0 3.589.396 5.309 1.189l-1.243 2.971-.448-.187c-.59-.24-1.147-.444-1.673-.61a6.658 6.658 0 00-2.012-.31c-1.216 0-1.824.328-1.824.986 0 .369.196.688.588.959.391.27 1.25.67 2.573 1.202 1.18.477 2.044.923 2.593 1.337.55.414.955.892 1.216 1.432.261.54.392 1.184.392 1.931 0 1.55-.538 2.729-1.614 3.54-1.077.81-2.686 1.215-4.83 1.215-1.098 0-2.034-.074-2.809-.223-.774-.148-1.5-.367-2.175-.655v-3.404l.391.175c.665.284 1.397.528 2.196.73.96.243 1.803.365 2.533.365 1.495 0 2.242-.432 2.242-1.297 0-.324-.1-.587-.297-.79-.198-.203-.54-.432-1.027-.689a25.567 25.567 0 00-1.945-.898c-1.161-.486-2.015-.937-2.56-1.35-.544-.415-.94-.89-1.188-1.426-.248-.536-.372-1.195-.372-1.979 0-1.342.52-2.38 1.56-3.113 1.04-.734 2.515-1.101 4.424-1.101zm24.086 12.079v3.306H85.317v-3.306h13.89z" fill="url(#b)" fill-rule="nonzero" transform="translate(140.258 10.417)"/></g></svg>